<svg width="208" height="72" viewBox="0 0 208 72" fill="none" xmlns="http://www.w3.org/2000/svg">
<path fill-rule="evenodd" clip-rule="evenodd" d="M47.4148 50.8725C43.8225 50.4117 37.975 47.9098 34.347 46.5728C28.11 44.2591 4.2655 35.8739 1.4845 31.7268C-0.33921 28.9945 1.34172 26.1486 4.37908 25.5547C10.1682 24.4092 41.538 28.8225 48.5116 30.6364C55.9622 32.6029 75.9192 37.8956 72.0673 48.8249C69.4875 56.123 54.8167 61.1495 42.6348 64.4919C43.0859 64.5698 43.5629 64.625 44.0107 64.758C40.6683 66.572 36.3589 67.1659 32.6336 67.8538C30.8846 68.1783 27.4838 69.2492 26.481 67.3606C25.2577 65.1053 28.6877 64.0928 30.0149 63.5379C36.625 60.997 43.1703 58.8942 49.7804 56.1262C52.2531 55.0943 65.0645 49.3636 65.1035 46.3067C65.0645 46.2873 65.0645 46.3067 65.0353 46.2678C62.2576 42.9838 54.1093 40.9946 49.9427 40.0016C43.8744 38.5511 37.4558 37.1752 31.3324 35.9875C28.123 35.358 21.3312 34.0794 15.3603 33.1611C24.0537 37.7074 33.2145 41.7215 41.7165 46.6312C44.1243 48.0266 45.6235 48.7535 47.4083 50.8725H47.4148Z" fill="#00EFFF"/>
<path fill-rule="evenodd" clip-rule="evenodd" d="M100.66 60.2507C98.0442 62.1036 97.0123 62.2756 93.9749 63.1355C88.2636 64.7029 71.2012 68.4671 71.1526 58.6638C71.0877 50.6973 86.1803 40.6117 92.5406 37.7431C98.187 35.2217 114.351 28.803 117.57 37.7041C119.997 44.5252 109.71 55.8179 104.93 60.0397C103.191 61.6266 103.804 61.1301 101.588 62.2009C102.285 59.7542 101.877 60.653 103.087 58.5697C104.453 56.123 113.221 42.4451 111.511 40.0373C111.511 40.1509 111.485 40.1152 111.531 40.2093C111.423 40.2677 111.511 40.2482 111.29 40.2255C107.338 39.8069 99.79 43.6069 96.4087 45.4987C91.0219 48.5361 83.0067 52.4334 78.8985 57.0932C78.8206 57.2295 78.0093 58.4886 77.7432 58.7547C80.4658 60.4551 90.2561 59.9975 93.4557 59.8807C96.6066 59.7671 97.5055 59.5173 100.656 60.2442L100.66 60.2507ZM77.6394 58.6833C77.5842 58.586 77.5323 58.4918 77.4382 58.4529C77.4382 58.5665 77.4382 58.5308 77.6394 58.6833Z" fill="#00EFFF"/>
<path fill-rule="evenodd" clip-rule="evenodd" d="M207.057 20.0544C208.014 22.9392 208.014 23.1696 207.995 26.2816C207.784 43.7432 195.631 60.6531 179.127 66.3286C174.065 68.068 166.556 68.889 162.334 65.2578C159.43 66.4227 156.564 67.3606 153.965 67.9901C152.261 68.3925 152.855 68.2757 151.1 68.2205C152.647 66.7116 152.667 66.8446 154.481 65.7932C156.318 64.7613 158.265 63.6515 160.231 62.506C159.942 61.9316 159.715 61.3215 159.543 60.6531C157.518 52.9169 166.251 42.0817 171.696 37.0195C175.882 33.1222 184.248 27.7354 189.177 33.2163C194.45 39.0801 187.496 48.3284 183.063 52.5307C180.386 55.0911 176.911 57.6125 173.111 59.8872C174.428 59.7737 175.577 59.5627 175.976 59.4654C188.778 56.6779 199.266 45.1158 203.543 33.08C205.165 28.4947 205.532 24.2145 207.057 20.0511V20.0544ZM167.834 57.7488C173.623 53.832 179.03 49.2857 182.203 43.8795C182.586 43.211 184.439 39.5409 184.017 38.3207H183.998C181.36 39.0833 180.159 40.0406 178.173 41.9876C175.46 44.6064 168.717 53.7541 167.834 57.7488ZM184.017 38.2623C183.998 38.165 183.962 38.0903 183.865 38.0124C183.865 38.126 183.962 38.2006 184.017 38.2623Z" fill="#00EFFF"/>
<path fill-rule="evenodd" clip-rule="evenodd" d="M172.669 0.00324504C172.766 3.17365 172.305 4.36782 171.543 7.39544C168.161 21.0084 162.294 38.9664 156.946 51.9206C154.957 56.6973 150.012 70.1448 142.655 66.0008C138.012 63.3659 138.148 53.449 137.593 48.5003C137.327 45.94 136.866 41.8318 135.627 39.5765C135.529 39.424 135.51 39.424 135.49 39.4045C129.682 41.199 116.241 63.804 112.048 69.3627C110.968 70.7938 111.425 70.2973 109.965 71.4622C110.101 69.2297 110.166 69.34 110.948 67.2599C114.073 58.8131 125.288 34.4948 134.342 32.4699C143.723 30.3671 145.29 45.0995 146.913 54.3447C147.62 53.0856 148.269 51.8784 148.652 51.1548C156.161 36.8831 161.967 21.0473 168.866 6.43816C170.202 3.61173 170.585 2.40457 172.665 0L172.669 0.00324504ZM135.662 39.3688C135.682 39.3883 135.74 39.3883 135.795 39.3688L135.779 39.3493C135.74 39.3493 135.682 39.3688 135.662 39.3688ZM147.948 59.0662C147.961 59.0792 147.967 59.1051 147.967 59.1441C148.006 59.1441 148.023 59.1441 147.948 59.0662ZM144.09 58.3198C144.051 58.3393 143.973 58.3977 143.953 58.4172C143.973 58.3977 144.051 58.3815 144.09 58.3198Z" fill="#00EFFF"/>
</svg>
