<svg width="22" height="22" viewBox="0 0 22 22" fill="none" xmlns="http://www.w3.org/2000/svg">
<mask id="path-1-inside-1_439_3559" fill="white">
<path d="M7.46012 11.194L12.0862 10.5219L14.1542 6.33006C14.1831 6.28085 14.2244 6.24006 14.274 6.21171C14.3235 6.18337 14.3796 6.16846 14.4367 6.16846C14.4938 6.16846 14.5499 6.18337 14.5994 6.21171C14.649 6.24006 14.6902 6.28085 14.7192 6.33006L16.7882 10.5209L21.4155 11.194C21.4736 11.2024 21.5283 11.2269 21.5733 11.2648C21.6183 11.3026 21.6518 11.3523 21.67 11.4082C21.6882 11.4641 21.6905 11.524 21.6764 11.581C21.6624 11.6381 21.6327 11.6902 21.5907 11.7313L18.2424 14.9945L19.0326 19.6019C19.0425 19.6598 19.036 19.7194 19.0139 19.7738C18.9917 19.8282 18.9548 19.8753 18.9073 19.9098C18.8598 19.9444 18.8036 19.965 18.745 19.9692C18.6864 19.9735 18.6278 19.9613 18.5757 19.9341L14.4378 17.7589L10.2998 19.9331C10.2478 19.9604 10.1892 19.9726 10.1306 19.9683C10.072 19.964 10.0158 19.9434 9.96828 19.9089C9.92076 19.8744 9.88385 19.8272 9.8617 19.7728C9.83955 19.7184 9.83306 19.6589 9.84294 19.601L10.6332 14.9945L7.28493 11.7313C7.24288 11.6902 7.21316 11.6382 7.19912 11.5811C7.18508 11.524 7.18728 11.4642 7.20547 11.4083C7.22366 11.3524 7.25712 11.3027 7.30207 11.2649C7.34701 11.227 7.40165 11.2025 7.45981 11.194H7.46012Z"/>
</mask>
<path d="M7.46012 11.194L7.60391 12.1836C7.55629 12.1905 7.50824 12.194 7.46012 12.194V11.194ZM12.0862 10.5219L12.983 10.9643C12.8373 11.2595 12.5557 11.4642 12.23 11.5115L12.0862 10.5219ZM14.1542 6.33006L13.2574 5.88762C13.2682 5.86573 13.2798 5.84423 13.2922 5.82318L14.1542 6.33006ZM14.7192 6.33006L15.5812 5.82318C15.5935 5.84415 15.6051 5.86557 15.6159 5.88738L14.7192 6.33006ZM16.7882 10.5209L16.6442 11.5105C16.3186 11.4632 16.0371 11.2587 15.8915 10.9636L16.7882 10.5209ZM21.4155 11.194L21.2726 12.1837L21.2715 12.1836L21.4155 11.194ZM21.5907 11.7313L22.2895 12.4465L22.2886 12.4474L21.5907 11.7313ZM18.2424 14.9945L17.2568 15.1635C17.2011 14.8391 17.3087 14.5081 17.5444 14.2783L18.2424 14.9945ZM19.0326 19.6019L20.0182 19.4329L20.0184 19.4336L19.0326 19.6019ZM18.5757 19.9341L18.1115 20.8197L18.1104 20.8192L18.5757 19.9341ZM14.4378 17.7589L13.9727 16.8736C14.2639 16.7206 14.6118 16.7206 14.9031 16.8737L14.4378 17.7589ZM10.2998 19.9331L10.765 20.8183L10.7641 20.8188L10.2998 19.9331ZM9.84294 19.601L8.85721 19.4327L8.85734 19.4319L9.84294 19.601ZM10.6332 14.9945L11.3312 14.2783C11.5669 14.5081 11.6745 14.8391 11.6188 15.1636L10.6332 14.9945ZM7.28493 11.7313L6.58698 12.4474L6.58619 12.4466L7.28493 11.7313ZM7.45981 11.194L7.31608 10.2044C7.36368 10.1975 7.41171 10.194 7.45981 10.194V11.194ZM7.31635 10.2044L11.9424 9.53228L12.23 11.5115L7.60391 12.1836L7.31635 10.2044ZM11.1894 10.0795L13.2574 5.88762L15.051 6.77249L12.983 10.9643L11.1894 10.0795ZM13.2922 5.82318C13.4094 5.62382 13.5767 5.45854 13.7774 5.3437L14.7705 7.07972C14.8722 7.02157 14.9569 6.93788 15.0162 6.83693L13.2922 5.82318ZM13.7774 5.3437C13.9782 5.22887 14.2054 5.16846 14.4367 5.16846V7.16846C14.5538 7.16846 14.6689 7.13787 14.7705 7.07972L13.7774 5.3437ZM14.4367 5.16846C14.668 5.16846 14.8952 5.22887 15.096 5.3437L14.1029 7.07972C14.2045 7.13787 14.3196 7.16846 14.4367 7.16846V5.16846ZM15.096 5.3437C15.2967 5.45854 15.464 5.62382 15.5812 5.82318L13.8572 6.83693C13.9165 6.93788 14.0012 7.02157 14.1029 7.07972L15.096 5.3437ZM15.6159 5.88738L17.6848 10.0783L15.8915 10.9636L13.8225 6.77274L15.6159 5.88738ZM16.9321 9.53136L21.5594 10.2044L21.2715 12.1836L16.6442 11.5105L16.9321 9.53136ZM21.5583 10.2043C21.8012 10.2393 22.0294 10.3416 22.2171 10.4996L20.9295 12.03C21.0273 12.1122 21.1461 12.1655 21.2726 12.1837L21.5583 10.2043ZM22.2171 10.4996C22.4049 10.6575 22.5447 10.8649 22.6207 11.0982L20.7193 11.7182C20.7589 11.8397 20.8317 11.9477 20.9295 12.03L22.2171 10.4996ZM22.6207 11.0982C22.6968 11.3314 22.7061 11.5813 22.6476 11.8196L20.7053 11.3425C20.6748 11.4666 20.6797 11.5967 20.7193 11.7182L22.6207 11.0982ZM22.6476 11.8196C22.589 12.0579 22.465 12.275 22.2895 12.4465L20.8918 11.016C20.8004 11.1053 20.7358 11.2184 20.7053 11.3425L22.6476 11.8196ZM22.2886 12.4474L18.9403 15.7106L17.5444 14.2783L20.8927 11.0151L22.2886 12.4474ZM19.228 14.8254L20.0182 19.4329L18.047 19.771L17.2568 15.1635L19.228 14.8254ZM20.0184 19.4336C20.0596 19.6753 20.0325 19.9237 19.9401 20.1508L18.0877 19.3968C18.0395 19.515 18.0254 19.6444 18.0469 19.7702L20.0184 19.4336ZM19.9401 20.1508C19.8477 20.3779 19.6936 20.5746 19.4953 20.7187L18.3193 19.101C18.2161 19.176 18.1358 19.2785 18.0877 19.3968L19.9401 20.1508ZM19.4953 20.7187C19.297 20.8629 19.0623 20.9487 18.8178 20.9666L18.6722 18.9719C18.5448 18.9812 18.4226 19.0259 18.3193 19.101L19.4953 20.7187ZM18.8178 20.9666C18.5733 20.9844 18.3286 20.9336 18.1115 20.8197L19.04 19.0484C18.9269 18.9891 18.7995 18.9626 18.6722 18.9719L18.8178 20.9666ZM18.1104 20.8192L13.9725 18.644L14.9031 16.8737L19.041 19.0489L18.1104 20.8192ZM14.9029 18.6441L10.765 20.8183L9.83471 19.0479L13.9727 16.8736L14.9029 18.6441ZM10.7641 20.8188C10.547 20.9326 10.3023 20.9835 10.0578 20.9656L10.2034 18.9709C10.0761 18.9616 9.94867 18.9881 9.83558 19.0474L10.7641 20.8188ZM10.0578 20.9656C9.81328 20.9478 9.57862 20.8619 9.38031 20.7178L10.5563 19.1C10.453 19.0249 10.3308 18.9802 10.2034 18.9709L10.0578 20.9656ZM9.38031 20.7178C9.18199 20.5736 9.02793 20.3769 8.93549 20.1498L10.7879 19.3958C10.7398 19.2775 10.6595 19.1751 10.5563 19.1L9.38031 20.7178ZM8.93549 20.1498C8.84306 19.9228 8.81594 19.6744 8.85721 19.4327L10.8287 19.7693C10.8502 19.6434 10.836 19.5141 10.7879 19.3958L8.93549 20.1498ZM8.85734 19.4319L9.64762 14.8254L11.6188 15.1636L10.8285 19.7701L8.85734 19.4319ZM9.93527 15.7106L6.58698 12.4474L7.98288 11.0151L11.3312 14.2783L9.93527 15.7106ZM6.58619 12.4466C6.41072 12.2752 6.28668 12.0582 6.22808 11.82L8.17017 11.3422C8.13965 11.2182 8.07505 11.1051 7.98366 11.0159L6.58619 12.4466ZM6.22808 11.82C6.16948 11.5819 6.17865 11.332 6.25458 11.0988L8.15636 11.7178C8.1959 11.5964 8.20068 11.4662 8.17017 11.3422L6.22808 11.82ZM6.25458 11.0988C6.33051 10.8655 6.47015 10.6582 6.65772 10.5001L7.94641 12.0296C8.04409 11.9473 8.11682 11.8393 8.15636 11.7178L6.25458 11.0988ZM6.65772 10.5001C6.84529 10.3421 7.07333 10.2396 7.31608 10.2044L7.60354 12.1836C7.72996 12.1653 7.84873 12.1119 7.94641 12.0296L6.65772 10.5001ZM7.45981 10.194H7.46012V12.194H7.45981V10.194Z" fill="#00EFFF" mask="url(#path-1-inside-1_439_3559)"/>
<g clip-path="url(#clip0_439_3559)">
<mask id="path-3-inside-2_439_3559" fill="white">
<path d="M3.0688 3.10595L5.5921 2.73935L6.72012 0.452892C6.7359 0.426052 6.75842 0.4038 6.78544 0.38834C6.81247 0.372879 6.84307 0.364746 6.8742 0.364746C6.90534 0.364746 6.93593 0.372879 6.96296 0.38834C6.98999 0.4038 7.01251 0.426052 7.02829 0.452892L8.15682 2.73883L10.6808 3.10595C10.7125 3.11054 10.7424 3.1239 10.7669 3.14455C10.7914 3.16519 10.8097 3.19229 10.8197 3.22278C10.8296 3.25327 10.8308 3.28593 10.8232 3.31707C10.8155 3.34821 10.7993 3.37659 10.7764 3.399L8.95002 5.17894L9.38109 7.69209C9.38648 7.72368 9.38293 7.75614 9.37085 7.78582C9.35877 7.8155 9.33864 7.84121 9.31272 7.86005C9.2868 7.87889 9.25613 7.89011 9.22418 7.89244C9.19222 7.89477 9.16025 7.88813 9.13187 7.87325L6.8748 6.6868L4.61774 7.87274C4.58936 7.88761 4.55739 7.89426 4.52543 7.89192C4.49347 7.88959 4.46281 7.87837 4.43689 7.85953C4.41097 7.84069 4.39083 7.81498 4.37875 7.78531C4.36667 7.75563 4.36313 7.72316 4.36852 7.69158L4.79958 5.17894L2.97324 3.399C2.95031 3.3766 2.9341 3.34824 2.92644 3.31711C2.91878 3.28598 2.91998 3.25333 2.9299 3.22284C2.93982 3.19236 2.95807 3.16526 2.98259 3.14461C3.0071 3.12395 3.03691 3.11056 3.06863 3.10595H3.0688Z"/>
</mask>
<path d="M3.0688 3.10595L3.21258 4.09556L3.14107 4.10595H3.0688V3.10595ZM5.5921 2.73935L6.4889 3.18178L6.25625 3.65335L5.73588 3.72895L5.5921 2.73935ZM6.72012 0.452892L5.82332 0.0104577L5.83953 -0.0224001L5.8581 -0.0539835L6.72012 0.452892ZM7.02829 0.452892L7.89031 -0.0539835L7.90881 -0.022517L7.92497 0.0102148L7.02829 0.452892ZM8.15682 2.73883L8.01288 3.72842L7.49279 3.65277L7.26014 3.18151L8.15682 2.73883ZM10.6808 3.10595L10.5379 4.0957L10.5369 4.09554L10.6808 3.10595ZM10.7764 3.399L11.4752 4.11426L11.4743 4.11515L10.7764 3.399ZM8.95002 5.17894L7.96442 5.34799L7.87553 4.82977L8.25207 4.46279L8.95002 5.17894ZM9.38109 7.69209L10.3667 7.52304L10.3668 7.52379L9.38109 7.69209ZM9.13187 7.87325L8.6676 8.75895L8.66657 8.75841L9.13187 7.87325ZM6.8748 6.6868L6.40967 5.80156L6.87491 5.55711L7.3401 5.80164L6.8748 6.6868ZM4.61774 7.87274L5.08288 8.75798L5.08201 8.75843L4.61774 7.87274ZM4.36852 7.69158L3.38279 7.52328L3.38292 7.52249L4.36852 7.69158ZM4.79958 5.17894L5.49753 4.46279L5.87409 4.82978L5.78519 5.34803L4.79958 5.17894ZM2.97324 3.399L2.27529 4.11515L2.27451 4.11438L2.97324 3.399ZM3.06863 3.10595L2.9249 2.11634L2.99639 2.10595H3.06863V3.10595ZM2.92502 2.11634L5.44832 1.74974L5.73588 3.72895L3.21258 4.09556L2.92502 2.11634ZM4.6953 2.29691L5.82332 0.0104577L7.61692 0.895326L6.4889 3.18178L4.6953 2.29691ZM5.8581 -0.0539835C5.96217 -0.230975 6.11067 -0.377714 6.28889 -0.479668L7.28199 1.25635C7.40617 1.18531 7.50963 1.08308 7.58214 0.959768L5.8581 -0.0539835ZM6.28889 -0.479668C6.46712 -0.581622 6.66888 -0.635254 6.8742 -0.635254V1.36475C7.01725 1.36475 7.15782 1.32738 7.28199 1.25635L6.28889 -0.479668ZM6.8742 -0.635254C7.07953 -0.635254 7.28129 -0.581622 7.45951 -0.479668L6.46641 1.25635C6.59058 1.32738 6.73115 1.36475 6.8742 1.36475V-0.635254ZM7.45951 -0.479668C7.63774 -0.377714 7.78624 -0.230975 7.89031 -0.0539835L6.16627 0.959768C6.23878 1.08308 6.34224 1.18531 6.46641 1.25635L7.45951 -0.479668ZM7.92497 0.0102148L9.0535 2.29615L7.26014 3.18151L6.13161 0.895569L7.92497 0.0102148ZM8.30076 1.74924L10.8247 2.11637L10.5369 4.09554L8.01288 3.72842L8.30076 1.74924ZM10.8237 2.11621C11.0401 2.14745 11.2434 2.2386 11.4107 2.37936L10.1231 3.90974C10.2413 4.00921 10.385 4.07362 10.5379 4.0957L10.8237 2.11621ZM11.4107 2.37936C11.578 2.52012 11.7026 2.70488 11.7704 2.91275L9.86893 3.53281C9.91683 3.6797 10.0049 3.81027 10.1231 3.90974L11.4107 2.37936ZM11.7704 2.91275C11.8382 3.12062 11.8464 3.3433 11.7943 3.55563L9.85203 3.07851C9.81518 3.22855 9.82103 3.38592 9.86893 3.53281L11.7704 2.91275ZM11.7943 3.55563C11.7421 3.76796 11.6316 3.96146 11.4752 4.11426L10.0775 2.68374C9.967 2.79172 9.88889 2.92846 9.85203 3.07851L11.7943 3.55563ZM11.4743 4.11515L9.64797 5.89509L8.25207 4.46279L10.0784 2.68285L11.4743 4.11515ZM9.93563 5.00988L10.3667 7.52304L8.39548 7.86115L7.96442 5.34799L9.93563 5.00988ZM10.3668 7.52379C10.4036 7.73914 10.3794 7.96048 10.2971 8.16283L8.44465 7.40881C8.38644 7.5518 8.36937 7.70822 8.39535 7.8604L10.3668 7.52379ZM10.2971 8.16283C10.2147 8.36518 10.0774 8.54047 9.90069 8.66893L8.72475 7.05117C8.59987 7.14194 8.50285 7.26582 8.44465 7.40881L10.2971 8.16283ZM9.90069 8.66893C9.72398 8.79738 9.51487 8.87388 9.29698 8.88979L9.15137 6.89509C8.99739 6.90634 8.84963 6.96039 8.72475 7.05117L9.90069 8.66893ZM9.29698 8.88979C9.07909 8.90569 8.86109 8.86037 8.6676 8.75895L9.59613 6.98755C9.4594 6.91588 9.30535 6.88385 9.15137 6.89509L9.29698 8.88979ZM8.66657 8.75841L6.40951 7.57195L7.3401 5.80164L9.59716 6.98809L8.66657 8.75841ZM7.33994 7.57204L5.08288 8.75797L4.15261 6.9875L6.40967 5.80156L7.33994 7.57204ZM5.08201 8.75843C4.8885 8.85986 4.67051 8.90518 4.45262 8.88927L4.59824 6.89458C4.44427 6.88334 4.29022 6.91536 4.15348 6.98704L5.08201 8.75843ZM4.45262 8.88927C4.23473 8.87336 4.02563 8.79687 3.84892 8.66841L5.02486 7.05065C4.89998 6.95988 4.75222 6.90582 4.59824 6.89458L4.45262 8.88927ZM3.84892 8.66841C3.6722 8.53996 3.53491 8.36467 3.45255 8.16232L5.30496 7.40829C5.24676 7.2653 5.14974 7.14142 5.02486 7.05065L3.84892 8.66841ZM3.45255 8.16232C3.37018 7.95997 3.34602 7.73863 3.38279 7.52328L5.35426 7.85988C5.38024 7.7077 5.36317 7.55128 5.30496 7.40829L3.45255 8.16232ZM3.38292 7.52249L3.81398 5.00985L5.78519 5.34803L5.35412 7.86067L3.38292 7.52249ZM4.10163 5.89509L2.27529 4.11515L3.67119 2.68285L5.49753 4.46279L4.10163 5.89509ZM2.27451 4.11438C2.11814 3.96166 2.00761 3.76825 1.9554 3.55601L3.89748 3.0782C3.86058 2.92822 3.78247 2.79155 3.67197 2.68362L2.27451 4.11438ZM1.9554 3.55601C1.90318 3.34378 1.91135 3.12117 1.97901 2.91332L3.88079 3.53237C3.9286 3.38549 3.93438 3.22817 3.89748 3.0782L1.9554 3.55601ZM1.97901 2.91332C2.04667 2.70547 2.1711 2.5207 2.33825 2.37987L3.62693 3.90934C3.74505 3.80982 3.83298 3.67925 3.88079 3.53237L1.97901 2.91332ZM2.33825 2.37987C2.50539 2.23904 2.70859 2.14775 2.9249 2.11634L3.21236 4.09557C3.36522 4.07337 3.50882 4.00886 3.62693 3.90934L2.33825 2.37987ZM3.06863 2.10595H3.0688V4.10595H3.06863V2.10595Z" fill="#00EFFF" mask="url(#path-3-inside-2_439_3559)"/>
</g>
<g clip-path="url(#clip1_439_3559)">
<path d="M1.48954 21.5586L1.40542 21.6744L1.48954 21.5586ZM1.48954 21.5586L1.48961 21.5588L1.55613 21.6854M1.48954 21.5586L1.48952 21.5586L1.48943 21.5586L1.55613 21.6854M1.55613 21.6854L1.4897 21.5586L1.71804 21.5978L1.71809 21.5975M1.55613 21.6854L1.71809 21.5975M1.38203 21.3532L1.3817 21.3534L1.48945 21.5585L1.79745 21.135M1.38203 21.3532L1.79745 21.135M1.38203 21.3532L1.48963 21.5585L1.71809 21.5975M1.38203 21.3532C1.4203 21.3332 1.46342 21.3242 1.5065 21.3274C1.5496 21.3305 1.59095 21.3456 1.6259 21.371C1.6259 21.371 1.62591 21.371 1.62591 21.371C1.66086 21.3964 1.68801 21.4311 1.7043 21.4711C1.72059 21.5112 1.72537 21.5549 1.71809 21.5975M1.79745 21.135L2.07726 19.5039L2.1106 19.3096L1.96939 19.172L0.783932 18.0166L2.42201 17.7786L2.61715 17.7503L2.70439 17.5735L3.43658 16.0893L4.1691 17.5731L4.25635 17.7498L4.45138 17.7782L6.09016 18.0166L4.90463 19.172L4.76343 19.3096L4.79676 19.5039L5.07657 21.1353L3.6115 20.3652L3.43705 20.2735L3.26259 20.3651L1.79745 21.135ZM6.5547 18.0841C6.55471 18.0841 6.55471 18.0841 6.55472 18.0841L6.5547 18.0841Z" stroke="#00EFFF" stroke-width="0.75"/>
</g>
<defs>
<clipPath id="clip0_439_3559">
<rect width="8.25" height="8.25" fill="white" transform="matrix(-1 0 0 1 11 0)"/>
</clipPath>
<clipPath id="clip1_439_3559">
<rect width="6.875" height="6.875" fill="white" transform="matrix(-1 0 0 1 6.875 15.125)"/>
</clipPath>
</defs>
</svg>
