<svg width="22" height="22" viewBox="0 0 22 22" fill="none" xmlns="http://www.w3.org/2000/svg">
<mask id="path-1-inside-1_436_3051" fill="white">
<path d="M14.5399 11.194L9.91383 10.5219L7.8458 6.33006C7.81687 6.28085 7.77558 6.24006 7.72603 6.21171C7.67649 6.18337 7.62039 6.16846 7.56331 6.16846C7.50623 6.16846 7.45013 6.18337 7.40059 6.21171C7.35104 6.24006 7.30975 6.28085 7.28082 6.33006L5.21185 10.5209L0.584541 11.194C0.526354 11.2024 0.471677 11.2269 0.426692 11.2648C0.381706 11.3026 0.348206 11.3523 0.329979 11.4082C0.311753 11.4641 0.309526 11.524 0.323551 11.581C0.337576 11.6381 0.367293 11.6902 0.409343 11.7313L3.75764 14.9945L2.96736 19.6019C2.95747 19.6598 2.96397 19.7194 2.98612 19.7738C3.00826 19.8282 3.04518 19.8753 3.0927 19.9098C3.14021 19.9444 3.19644 19.965 3.25503 19.9692C3.31361 19.9735 3.37223 19.9613 3.42426 19.9341L7.56221 17.7589L11.7002 19.9331C11.7522 19.9604 11.8108 19.9726 11.8694 19.9683C11.928 19.964 11.9842 19.9434 12.0317 19.9089C12.0792 19.8744 12.1162 19.8272 12.1383 19.7728C12.1604 19.7184 12.1669 19.6589 12.1571 19.601L11.3668 14.9945L14.7151 11.7313C14.7571 11.6902 14.7868 11.6382 14.8009 11.5811C14.8149 11.524 14.8127 11.4642 14.7945 11.4083C14.7763 11.3524 14.7429 11.3027 14.6979 11.2649C14.653 11.227 14.5984 11.2025 14.5402 11.194H14.5399Z"/>
</mask>
<path d="M14.5399 11.194L14.3961 12.1836C14.4437 12.1905 14.4918 12.194 14.5399 12.194V11.194ZM9.91383 10.5219L9.01703 10.9643C9.16267 11.2595 9.44428 11.4642 9.77005 11.5115L9.91383 10.5219ZM7.8458 6.33006L8.7426 5.88762C8.7318 5.86573 8.7202 5.84423 8.70782 5.82318L7.8458 6.33006ZM7.28082 6.33006L6.4188 5.82318C6.40647 5.84415 6.39491 5.86557 6.38414 5.88738L7.28082 6.33006ZM5.21185 10.5209L5.35579 11.5105C5.6814 11.4632 5.96287 11.2587 6.10853 10.9636L5.21185 10.5209ZM0.584541 11.194L0.727402 12.1837L0.728481 12.1836L0.584541 11.194ZM0.409343 11.7313L-0.289519 12.4465L-0.288607 12.4474L0.409343 11.7313ZM3.75764 14.9945L4.74325 15.1635C4.79889 14.8391 4.69132 14.5081 4.45559 14.2783L3.75764 14.9945ZM2.96736 19.6019L1.98175 19.4329L1.98162 19.4336L2.96736 19.6019ZM3.42426 19.9341L3.88853 20.8197L3.88955 20.8192L3.42426 19.9341ZM7.56221 17.7589L8.02734 16.8736C7.73607 16.7206 7.38816 16.7206 7.09691 16.8737L7.56221 17.7589ZM11.7002 19.9331L11.235 20.8183L11.2359 20.8188L11.7002 19.9331ZM12.1571 19.601L13.1428 19.4327L13.1427 19.4319L12.1571 19.601ZM11.3668 14.9945L10.6688 14.2783C10.4331 14.5081 10.3255 14.8391 10.3812 15.1636L11.3668 14.9945ZM14.7151 11.7313L15.413 12.4474L15.4138 12.4466L14.7151 11.7313ZM14.5402 11.194L14.6839 10.2044C14.6363 10.1975 14.5883 10.194 14.5402 10.194V11.194ZM14.6837 10.2044L10.0576 9.53228L9.77005 11.5115L14.3961 12.1836L14.6837 10.2044ZM10.8106 10.0795L8.7426 5.88762L6.949 6.77249L9.01703 10.9643L10.8106 10.0795ZM8.70782 5.82318C8.5906 5.62382 8.42333 5.45854 8.22258 5.3437L7.22948 7.07972C7.12783 7.02157 7.04314 6.93788 6.98378 6.83693L8.70782 5.82318ZM8.22258 5.3437C8.02184 5.22887 7.79458 5.16846 7.56331 5.16846V7.16846C7.44621 7.16846 7.33113 7.13787 7.22948 7.07972L8.22258 5.3437ZM7.56331 5.16846C7.33204 5.16846 7.10478 5.22887 6.90404 5.3437L7.89714 7.07972C7.79549 7.13787 7.68041 7.16846 7.56331 7.16846V5.16846ZM6.90404 5.3437C6.70329 5.45854 6.53602 5.62382 6.4188 5.82318L8.14284 6.83693C8.08348 6.93788 7.99879 7.02157 7.89714 7.07972L6.90404 5.3437ZM6.38414 5.88738L4.31516 10.0783L6.10853 10.9636L8.1775 6.77274L6.38414 5.88738ZM5.06791 9.53136L0.440601 10.2044L0.728481 12.1836L5.35579 11.5105L5.06791 9.53136ZM0.44168 10.2043C0.198831 10.2393 -0.0293661 10.3416 -0.217114 10.4996L1.0705 12.03C0.97272 12.1122 0.853877 12.1655 0.727402 12.1837L0.44168 10.2043ZM-0.217114 10.4996C-0.404864 10.6575 -0.544677 10.8649 -0.620747 11.0982L1.28071 11.7182C1.24109 11.8397 1.16828 11.9477 1.0705 12.03L-0.217114 10.4996ZM-0.620747 11.0982C-0.696817 11.3314 -0.706111 11.5813 -0.647577 11.8196L1.29468 11.3425C1.32516 11.4666 1.32032 11.5967 1.28071 11.7182L-0.620747 11.0982ZM-0.647577 11.8196C-0.589042 12.0579 -0.465015 12.275 -0.289518 12.4465L1.1082 11.016C1.1996 11.1053 1.26419 11.2184 1.29468 11.3425L-0.647577 11.8196ZM-0.288607 12.4474L3.05969 15.7106L4.45559 14.2783L1.10729 11.0151L-0.288607 12.4474ZM2.77203 14.8254L1.98175 19.4329L3.95297 19.771L4.74325 15.1635L2.77203 14.8254ZM1.98162 19.4336C1.94036 19.6753 1.96747 19.9237 2.05991 20.1508L3.91232 19.3968C3.96046 19.515 3.97458 19.6444 3.95309 19.7702L1.98162 19.4336ZM2.05991 20.1508C2.15234 20.3779 2.30641 20.5746 2.50472 20.7187L3.68067 19.101C3.78395 19.176 3.86419 19.2785 3.91232 19.3968L2.05991 20.1508ZM2.50472 20.7187C2.70304 20.8629 2.9377 20.9487 3.18222 20.9666L3.32783 18.9719C3.45518 18.9812 3.57739 19.0259 3.68067 19.101L2.50472 20.7187ZM3.18222 20.9666C3.42675 20.9844 3.67139 20.9336 3.88852 20.8197L2.96 19.0484C3.07307 18.9891 3.20048 18.9626 3.32783 18.9719L3.18222 20.9666ZM3.88955 20.8192L8.0275 18.644L7.09691 16.8737L2.95897 19.0489L3.88955 20.8192ZM7.09707 18.6441L11.235 20.8183L12.1653 19.0479L8.02734 16.8736L7.09707 18.6441ZM11.2359 20.8188C11.453 20.9326 11.6977 20.9835 11.9422 20.9656L11.7966 18.9709C11.9239 18.9616 12.0513 18.9881 12.1644 19.0474L11.2359 20.8188ZM11.9422 20.9656C12.1867 20.9478 12.4214 20.8619 12.6197 20.7178L11.4437 19.1C11.547 19.0249 11.6692 18.9802 11.7966 18.9709L11.9422 20.9656ZM12.6197 20.7178C12.818 20.5736 12.9721 20.3769 13.0645 20.1498L11.2121 19.3958C11.2602 19.2775 11.3405 19.1751 11.4437 19.1L12.6197 20.7178ZM13.0645 20.1498C13.1569 19.9228 13.1841 19.6744 13.1428 19.4327L11.1713 19.7693C11.1498 19.6434 11.164 19.5141 11.2121 19.3958L13.0645 20.1498ZM13.1427 19.4319L12.3524 14.8254L10.3812 15.1636L11.1715 19.7701L13.1427 19.4319ZM12.0647 15.7106L15.413 12.4474L14.0171 11.0151L10.6688 14.2783L12.0647 15.7106ZM15.4138 12.4466C15.5893 12.2752 15.7133 12.0582 15.7719 11.82L13.8298 11.3422C13.8604 11.2182 13.925 11.1051 14.0163 11.0159L15.4138 12.4466ZM15.7719 11.82C15.8305 11.5819 15.8213 11.332 15.7454 11.0988L13.8436 11.7178C13.8041 11.5964 13.7993 11.4662 13.8298 11.3422L15.7719 11.82ZM15.7454 11.0988C15.6695 10.8655 15.5299 10.6582 15.3423 10.5001L14.0536 12.0296C13.9559 11.9473 13.8832 11.8393 13.8436 11.7178L15.7454 11.0988ZM15.3423 10.5001C15.1547 10.3421 14.9267 10.2396 14.6839 10.2044L14.3965 12.1836C14.27 12.1653 14.1513 12.1119 14.0536 12.0296L15.3423 10.5001ZM14.5402 10.194H14.5399V12.194H14.5402V10.194Z" fill="#00EFFF" mask="url(#path-1-inside-1_436_3051)"/>
<g clip-path="url(#clip0_436_3051)">
<mask id="path-3-inside-2_436_3051" fill="white">
<path d="M18.9312 3.10595L16.4079 2.73935L15.2799 0.452892C15.2641 0.426052 15.2416 0.4038 15.2146 0.38834C15.1875 0.372879 15.1569 0.364746 15.1258 0.364746C15.0947 0.364746 15.0641 0.372879 15.037 0.38834C15.01 0.4038 14.9875 0.426052 14.9717 0.452892L13.8432 2.73883L11.3192 3.10595C11.2875 3.11054 11.2576 3.1239 11.2331 3.14455C11.2086 3.16519 11.1903 3.19229 11.1803 3.22278C11.1704 3.25327 11.1692 3.28593 11.1768 3.31707C11.1845 3.34821 11.2007 3.37659 11.2236 3.399L13.05 5.17894L12.6189 7.69209C12.6135 7.72368 12.6171 7.75614 12.6291 7.78582C12.6412 7.8155 12.6614 7.84121 12.6873 7.86005C12.7132 7.87889 12.7439 7.89011 12.7758 7.89244C12.8078 7.89477 12.8398 7.88813 12.8681 7.87325L15.1252 6.6868L17.3823 7.87274C17.4106 7.88761 17.4426 7.89426 17.4746 7.89192C17.5065 7.88959 17.5372 7.87837 17.5631 7.85953C17.589 7.84069 17.6092 7.81498 17.6212 7.78531C17.6333 7.75563 17.6369 7.72316 17.6315 7.69158L17.2004 5.17894L19.0268 3.399C19.0497 3.3766 19.0659 3.34824 19.0736 3.31711C19.0812 3.28598 19.08 3.25333 19.0701 3.22284C19.0602 3.19236 19.0419 3.16526 19.0174 3.14461C18.9929 3.12395 18.9631 3.11056 18.9314 3.10595H18.9312Z"/>
</mask>
<path d="M18.9312 3.10595L18.7874 4.09556L18.8589 4.10595H18.9312V3.10595ZM16.4079 2.73935L15.5111 3.18178L15.7437 3.65335L16.2641 3.72895L16.4079 2.73935ZM15.2799 0.452892L16.1767 0.0104577L16.1605 -0.0224001L16.1419 -0.0539835L15.2799 0.452892ZM14.9717 0.452892L14.1097 -0.0539835L14.0912 -0.022517L14.075 0.0102148L14.9717 0.452892ZM13.8432 2.73883L13.9871 3.72842L14.5072 3.65277L14.7399 3.18151L13.8432 2.73883ZM11.3192 3.10595L11.4621 4.0957L11.4631 4.09554L11.3192 3.10595ZM11.2236 3.399L10.5248 4.11426L10.5257 4.11515L11.2236 3.399ZM13.05 5.17894L14.0356 5.34799L14.1245 4.82977L13.7479 4.46279L13.05 5.17894ZM12.6189 7.69209L11.6333 7.52304L11.6332 7.52379L12.6189 7.69209ZM12.8681 7.87325L13.3324 8.75895L13.3334 8.75841L12.8681 7.87325ZM15.1252 6.6868L15.5903 5.80156L15.1251 5.55711L14.6599 5.80164L15.1252 6.6868ZM17.3823 7.87274L16.9171 8.75798L16.918 8.75843L17.3823 7.87274ZM17.6315 7.69158L18.6172 7.52328L18.6171 7.52249L17.6315 7.69158ZM17.2004 5.17894L16.5025 4.46279L16.1259 4.82978L16.2148 5.34803L17.2004 5.17894ZM19.0268 3.399L19.7247 4.11515L19.7255 4.11438L19.0268 3.399ZM18.9314 3.10595L19.0751 2.11634L19.0036 2.10595H18.9314V3.10595ZM19.075 2.11634L16.5517 1.74974L16.2641 3.72895L18.7874 4.09556L19.075 2.11634ZM17.3047 2.29691L16.1767 0.0104577L14.3831 0.895326L15.5111 3.18178L17.3047 2.29691ZM16.1419 -0.0539835C16.0378 -0.230975 15.8893 -0.377714 15.7111 -0.479668L14.718 1.25635C14.5938 1.18531 14.4904 1.08308 14.4179 0.959768L16.1419 -0.0539835ZM15.7111 -0.479668C15.5329 -0.581622 15.3311 -0.635254 15.1258 -0.635254V1.36475C14.9827 1.36475 14.8422 1.32738 14.718 1.25635L15.7111 -0.479668ZM15.1258 -0.635254C14.9205 -0.635254 14.7187 -0.581622 14.5405 -0.479668L15.5336 1.25635C15.4094 1.32738 15.2688 1.36475 15.1258 1.36475V-0.635254ZM14.5405 -0.479668C14.3623 -0.377714 14.2138 -0.230975 14.1097 -0.0539835L15.8337 0.959768C15.7612 1.08308 15.6578 1.18531 15.5336 1.25635L14.5405 -0.479668ZM14.075 0.0102148L12.9465 2.29615L14.7399 3.18151L15.8684 0.895569L14.075 0.0102148ZM13.6992 1.74924L11.1753 2.11637L11.4631 4.09554L13.9871 3.72842L13.6992 1.74924ZM11.1763 2.11621C10.9599 2.14745 10.7566 2.2386 10.5893 2.37936L11.8769 3.90974C11.7587 4.00921 11.615 4.07362 11.4621 4.0957L11.1763 2.11621ZM10.5893 2.37936C10.422 2.52012 10.2974 2.70488 10.2296 2.91275L12.1311 3.53281C12.0832 3.6797 11.9951 3.81027 11.8769 3.90974L10.5893 2.37936ZM10.2296 2.91275C10.1618 3.12062 10.1536 3.3433 10.2057 3.55563L12.148 3.07851C12.1848 3.22855 12.179 3.38592 12.1311 3.53281L10.2296 2.91275ZM10.2057 3.55563C10.2579 3.76796 10.3684 3.96146 10.5248 4.11426L11.9225 2.68374C12.033 2.79172 12.1111 2.92846 12.148 3.07851L10.2057 3.55563ZM10.5257 4.11515L12.352 5.89509L13.7479 4.46279L11.9216 2.68285L10.5257 4.11515ZM12.0644 5.00988L11.6333 7.52304L13.6045 7.86115L14.0356 5.34799L12.0644 5.00988ZM11.6332 7.52379C11.5964 7.73914 11.6206 7.96048 11.7029 8.16283L13.5554 7.40881C13.6136 7.5518 13.6306 7.70822 13.6046 7.8604L11.6332 7.52379ZM11.7029 8.16283C11.7853 8.36518 11.9226 8.54047 12.0993 8.66893L13.2753 7.05117C13.4001 7.14194 13.4971 7.26582 13.5554 7.40881L11.7029 8.16283ZM12.0993 8.66893C12.276 8.79738 12.4851 8.87388 12.703 8.88979L12.8486 6.89509C13.0026 6.90634 13.1504 6.96039 13.2753 7.05117L12.0993 8.66893ZM12.703 8.88979C12.9209 8.90569 13.1389 8.86037 13.3324 8.75895L12.4039 6.98755C12.5406 6.91588 12.6946 6.88385 12.8486 6.89509L12.703 8.88979ZM13.3334 8.75841L15.5905 7.57195L14.6599 5.80164L12.4028 6.98809L13.3334 8.75841ZM14.6601 7.57204L16.9171 8.75797L17.8474 6.9875L15.5903 5.80156L14.6601 7.57204ZM16.918 8.75843C17.1115 8.85986 17.3295 8.90518 17.5474 8.88927L17.4018 6.89458C17.5557 6.88334 17.7098 6.91536 17.8465 6.98704L16.918 8.75843ZM17.5474 8.88927C17.7653 8.87336 17.9744 8.79687 18.1511 8.66841L16.9751 7.05065C17.1 6.95988 17.2478 6.90582 17.4018 6.89458L17.5474 8.88927ZM18.1511 8.66841C18.3278 8.53996 18.4651 8.36467 18.5475 8.16232L16.695 7.40829C16.7532 7.2653 16.8503 7.14142 16.9751 7.05065L18.1511 8.66841ZM18.5475 8.16232C18.6298 7.95997 18.654 7.73863 18.6172 7.52328L16.6457 7.85988C16.6198 7.7077 16.6368 7.55128 16.695 7.40829L18.5475 8.16232ZM18.6171 7.52249L18.186 5.00985L16.2148 5.34803L16.6459 7.86067L18.6171 7.52249ZM17.8984 5.89509L19.7247 4.11515L18.3288 2.68285L16.5025 4.46279L17.8984 5.89509ZM19.7255 4.11438C19.8819 3.96166 19.9924 3.76825 20.0446 3.55601L18.1025 3.0782C18.1394 2.92822 18.2175 2.79155 18.328 2.68362L19.7255 4.11438ZM20.0446 3.55601C20.0968 3.34378 20.0886 3.12117 20.021 2.91332L18.1192 3.53237C18.0714 3.38549 18.0656 3.22817 18.1025 3.0782L20.0446 3.55601ZM20.021 2.91332C19.9533 2.70547 19.8289 2.5207 19.6618 2.37987L18.3731 3.90934C18.255 3.80982 18.167 3.67925 18.1192 3.53237L20.021 2.91332ZM19.6618 2.37987C19.4946 2.23904 19.2914 2.14775 19.0751 2.11634L18.7876 4.09557C18.6348 4.07337 18.4912 4.00886 18.3731 3.90934L19.6618 2.37987ZM18.9314 2.10595H18.9312V4.10595H18.9314V2.10595Z" fill="#00EFFF" mask="url(#path-3-inside-2_436_3051)"/>
</g>
<g clip-path="url(#clip1_436_3051)">
<path d="M20.5105 21.5586L20.5946 21.6744L20.5105 21.5586ZM20.5105 21.5586L20.5104 21.5588L20.4439 21.6854M20.5105 21.5586L20.5105 21.5586L20.5106 21.5586L20.4439 21.6854M20.4439 21.6854L20.5103 21.5586L20.282 21.5978L20.2819 21.5975M20.4439 21.6854L20.2819 21.5975M20.618 21.3532L20.6183 21.3534L20.5105 21.5585L20.2025 21.135M20.618 21.3532L20.2025 21.135M20.618 21.3532L20.5104 21.5585L20.2819 21.5975M20.618 21.3532C20.5797 21.3332 20.5366 21.3242 20.4935 21.3274C20.4504 21.3305 20.409 21.3456 20.3741 21.371C20.3741 21.371 20.3741 21.371 20.3741 21.371C20.3391 21.3964 20.312 21.4311 20.2957 21.4711C20.2794 21.5112 20.2746 21.5549 20.2819 21.5975M20.2025 21.135L19.9227 19.5039L19.8894 19.3096L20.0306 19.172L21.2161 18.0166L19.578 17.7786L19.3829 17.7503L19.2956 17.5735L18.5634 16.0893L17.8309 17.5731L17.7437 17.7498L17.5486 17.7782L15.9098 18.0166L17.0954 19.172L17.2366 19.3096L17.2032 19.5039L16.9234 21.1353L18.3885 20.3652L18.563 20.2735L18.7374 20.3651L20.2025 21.135ZM15.4453 18.0841C15.4453 18.0841 15.4453 18.0841 15.4453 18.0841L15.4453 18.0841Z" stroke="#00EFFF" stroke-width="0.75"/>
</g>
<defs>
<clipPath id="clip0_436_3051">
<rect width="8.25" height="8.25" fill="white" transform="translate(11)"/>
</clipPath>
<clipPath id="clip1_436_3051">
<rect width="6.875" height="6.875" fill="white" transform="translate(15.125 15.125)"/>
</clipPath>
</defs>
</svg>
