<svg width="24" height="24" viewBox="0 0 24 24" fill="none" xmlns="http://www.w3.org/2000/svg">
<path d="M19.178 21.0999H8.36658C7.39477 21.0999 6.54443 20.2495 6.54443 19.2777V8.46631C6.54443 7.4945 7.39477 6.64417 8.36658 6.64417H19.178C20.1498 6.64417 21.0001 7.4945 21.0001 8.46631V19.2777C21.0001 20.2495 20.1498 21.0999 19.178 21.0999Z" stroke="white" stroke-miterlimit="10" stroke-linecap="round" stroke-linejoin="round"/>
<path d="M6.66567 17.4557H4.35762C3.50729 17.4557 2.8999 16.8483 2.8999 15.998V4.45772C2.8999 3.72886 3.50729 3 4.35762 3H15.8979C16.7482 3 17.3556 3.60738 17.3556 4.45772V6.6443" stroke="white" stroke-miterlimit="10" stroke-linecap="round" stroke-linejoin="round"/>
<path d="M14.4261 13.8112C14.4261 14.206 14.1061 14.526 13.7113 14.526C13.3166 14.526 12.9966 14.206 12.9966 13.8112C12.9966 13.4164 13.3166 13.0964 13.7113 13.0964C14.1061 13.0964 14.4261 13.4164 14.4261 13.8112Z" stroke="white"/>
<path d="M11.5108 10.7743C11.5108 11.1691 11.1908 11.4891 10.7961 11.4891C10.4013 11.4891 10.0813 11.1691 10.0813 10.7743C10.0813 10.3796 10.4013 10.0596 10.7961 10.0596C11.1908 10.0596 11.5108 10.3796 11.5108 10.7743Z" stroke="white"/>
<path d="M17.463 10.7743C17.463 11.1691 17.143 11.4891 16.7482 11.4891C16.3535 11.4891 16.0334 11.1691 16.0334 10.7743C16.0334 10.3796 16.3535 10.0596 16.7482 10.0596C17.143 10.0596 17.463 10.3796 17.463 10.7743Z" stroke="white"/>
<path d="M11.5108 16.9696C11.5108 17.3644 11.1908 17.6844 10.7961 17.6844C10.4013 17.6844 10.0813 17.3644 10.0813 16.9696C10.0813 16.5749 10.4013 16.2549 10.7961 16.2549C11.1908 16.2549 11.5108 16.5749 11.5108 16.9696Z" stroke="white"/>
<path d="M17.463 16.9696C17.463 17.3644 17.143 17.6844 16.7482 17.6844C16.3535 17.6844 16.0334 17.3644 16.0334 16.9696C16.0334 16.5749 16.3535 16.2549 16.7482 16.2549C17.143 16.2549 17.463 16.5749 17.463 16.9696Z" stroke="white"/>
</svg>
