<svg width="18" height="18" viewBox="0 0 18 18" fill="none" xmlns="http://www.w3.org/2000/svg">
<path d="M14.5 2.00002L9 1.90002L3.5 2.00002C3.5 2.00002 3.5 2.40002 3.5 2.90002L3.6 4.00002C3.7 5.20002 4 7.40002 5.4 9.40002C6.1 10.4 6.9 11 7.9 11.5V14.1H9H10.1V11.5C11.1 11 11.9 10.3 12.6 9.40002C14 7.40002 14.3 5.20002 14.4 4.00002L14.5 2.80002C14.5 2.30002 14.5 2.00002 14.5 2.00002Z" stroke="#10D1FF" stroke-miterlimit="10" stroke-linecap="round" stroke-linejoin="round"/>
<path d="M6.3999 16.1V14.1H11.5999V16.1" stroke="#10D1FF" stroke-miterlimit="10" stroke-linecap="round" stroke-linejoin="round"/>
<path d="M3.5 16.1H14.5" stroke="#10D1FF" stroke-miterlimit="10" stroke-linecap="round" stroke-linejoin="round"/>
<path d="M14.3998 3.40002H16.9998C16.9998 3.40002 16.8998 8.70002 13.2998 8.70002" stroke="#10D1FF" stroke-miterlimit="10" stroke-linecap="round" stroke-linejoin="round"/>
<path d="M3.6 3.40002H1C1 3.40002 1.1 8.70002 4.7 8.70002" stroke="#10D1FF" stroke-miterlimit="10" stroke-linecap="round" stroke-linejoin="round"/>
<path d="M9.24118 6.88136L9 6.74854L8.75882 6.88136L8.42111 7.06732L8.49123 6.63335L8.53132 6.38519L8.35606 6.20499L8.03417 5.87403L8.45684 5.80874L8.7195 5.76816L8.83279 5.52774L9 5.17292L9.16721 5.52774L9.2805 5.76816L9.54316 5.80874L9.96583 5.87403L9.64394 6.20499L9.46868 6.38519L9.50877 6.63335L9.57889 7.06732L9.24118 6.88136Z" stroke="#10D1FF"/>
</svg>
