<svg width="18" height="18" viewBox="0 0 18 18" fill="none" xmlns="http://www.w3.org/2000/svg">
<path d="M15.5 16.9H2.5C1.4 16.9 0.5 16 0.5 14.9V4.40002C0.5 3.30002 1.4 2.40002 2.5 2.40002H15.5C16.6 2.40002 17.5 3.30002 17.5 4.40002V14.9C17.5 16 16.6 16.9 15.5 16.9Z" stroke="white" stroke-miterlimit="10" stroke-linecap="round" stroke-linejoin="round"/>
<path d="M3.89998 6.59998C3.93736 6.59998 4.0166 6.6237 4.09642 6.70353C4.17625 6.78336 4.19998 6.86259 4.19998 6.89998C4.19998 6.97842 4.16951 7.0569 4.1189 7.11211C4.07423 7.16085 4.00707 7.19998 3.89998 7.19998C3.86259 7.19998 3.78336 7.17625 3.70353 7.09642C3.6237 7.0166 3.59998 6.93736 3.59998 6.89998C3.59998 6.86259 3.6237 6.78336 3.70353 6.70353C3.78336 6.6237 3.86259 6.59998 3.89998 6.59998Z" fill="white" stroke="white"/>
<path d="M10.7 6.59998C10.7374 6.59998 10.8166 6.6237 10.8964 6.70353C10.9763 6.78336 11 6.86259 11 6.89998C11 6.98013 10.9679 7.06751 10.9159 7.12988C10.8661 7.18967 10.8232 7.19998 10.8 7.19998C10.7626 7.19998 10.6834 7.17625 10.6036 7.09642C10.5237 7.0166 10.5 6.93736 10.5 6.89998C10.5 6.74982 10.5438 6.6776 10.57 6.64881C10.5935 6.6229 10.6306 6.59998 10.7 6.59998Z" fill="white" stroke="white"/>
<path d="M14.2 6.59998C14.2374 6.59998 14.3166 6.6237 14.3965 6.70353C14.4763 6.78336 14.5 6.86259 14.5 6.89998C14.5 6.93736 14.4763 7.0166 14.3965 7.09642C14.3166 7.17625 14.2374 7.19998 14.2 7.19998C14.1626 7.19998 14.0834 7.17625 14.0036 7.09642C13.9238 7.0166 13.9 6.93736 13.9 6.89998C13.9 6.86259 13.9238 6.78336 14.0036 6.70353C14.0834 6.6237 14.1626 6.59998 14.2 6.59998Z" fill="white" stroke="white"/>
<path d="M3.89998 10C3.93736 10 4.0166 10.0237 4.09642 10.1036C4.17625 10.1834 4.19998 10.2626 4.19998 10.3C4.19998 10.3784 4.16951 10.4569 4.1189 10.5121C4.07423 10.5609 4.00707 10.6 3.89998 10.6C3.86259 10.6 3.78336 10.5763 3.70353 10.4964C3.6237 10.4166 3.59998 10.3374 3.59998 10.3C3.59998 10.2626 3.6237 10.1834 3.70353 10.1036C3.78336 10.0237 3.86259 10 3.89998 10Z" fill="white" stroke="white"/>
<path d="M3.59998 13.7C3.59998 13.6626 3.6237 13.5834 3.70353 13.5036C3.78336 13.4238 3.86259 13.4 3.89998 13.4C4.00707 13.4 4.07423 13.4392 4.1189 13.4879C4.16951 13.5431 4.19998 13.6216 4.19998 13.7C4.19998 13.7374 4.17625 13.8166 4.09642 13.8965C4.0166 13.9763 3.93736 14 3.89998 14C3.86259 14 3.78336 13.9763 3.70353 13.8965C3.6237 13.8166 3.59998 13.7374 3.59998 13.7Z" fill="white" stroke="white"/>
<path d="M7.3 6.59998C7.33738 6.59998 7.41662 6.6237 7.49645 6.70353C7.57627 6.78336 7.6 6.86259 7.6 6.89998C7.6 6.97842 7.56953 7.0569 7.51892 7.11211C7.47425 7.16085 7.40709 7.19998 7.3 7.19998C7.26262 7.19998 7.18338 7.17625 7.10355 7.09642C7.02373 7.0166 7 6.93736 7 6.89998C7 6.86259 7.02373 6.78336 7.10355 6.70353C7.18338 6.6237 7.26262 6.59998 7.3 6.59998Z" fill="white" stroke="white"/>
<path d="M7.3 10C7.33738 10 7.41662 10.0237 7.49645 10.1036C7.57627 10.1834 7.6 10.2626 7.6 10.3C7.6 10.3784 7.56953 10.4569 7.51892 10.5121C7.47425 10.5609 7.40709 10.6 7.3 10.6C7.26262 10.6 7.18338 10.5763 7.10355 10.4964C7.02373 10.4166 7 10.3374 7 10.3C7 10.2626 7.02373 10.1834 7.10355 10.1036C7.18338 10.0237 7.26262 10 7.3 10Z" fill="white" stroke="white"/>
<path d="M7 13.7C7 13.6626 7.02373 13.5834 7.10355 13.5036C7.18338 13.4238 7.26262 13.4 7.3 13.4C7.40709 13.4 7.47425 13.4392 7.51892 13.4879C7.56953 13.5431 7.6 13.6216 7.6 13.7C7.6 13.7374 7.57627 13.8166 7.49645 13.8965C7.41662 13.9763 7.33738 14 7.3 14C7.26262 14 7.18338 13.9763 7.10355 13.8965C7.02373 13.8166 7 13.7374 7 13.7Z" fill="white" stroke="white"/>
<path d="M10.7 10C10.7374 10 10.8166 10.0237 10.8964 10.1036C10.9763 10.1834 11 10.2626 11 10.3C11 10.3802 10.9679 10.4675 10.9159 10.5299C10.8661 10.5897 10.8232 10.6 10.8 10.6C10.7626 10.6 10.6834 10.5763 10.6036 10.4964C10.5237 10.4166 10.5 10.3374 10.5 10.3C10.5 10.1498 10.5438 10.0776 10.57 10.0488C10.5935 10.0229 10.6306 10 10.7 10Z" fill="white" stroke="white"/>
<path d="M14.2 10C14.2374 10 14.3166 10.0237 14.3965 10.1036C14.4763 10.1834 14.5 10.2626 14.5 10.3C14.5 10.3374 14.4763 10.4166 14.3965 10.4964C14.3166 10.5763 14.2374 10.6 14.2 10.6C14.1626 10.6 14.0834 10.5763 14.0036 10.4964C13.9238 10.4166 13.9 10.3374 13.9 10.3C13.9 10.2626 13.9238 10.1834 14.0036 10.1036C14.0834 10.0237 14.1626 10 14.2 10Z" fill="white" stroke="white"/>
<path d="M10.7 13.4C10.7374 13.4 10.8166 13.4238 10.8964 13.5036C10.9763 13.5834 11 13.6626 11 13.7C11 13.7802 10.9679 13.8676 10.9159 13.9299C10.8661 13.9897 10.8232 14 10.8 14C10.7626 14 10.6834 13.9763 10.6036 13.8965C10.5237 13.8166 10.5 13.7374 10.5 13.7C10.5 13.6199 10.5321 13.5325 10.5841 13.4701C10.6339 13.4103 10.6768 13.4 10.7 13.4Z" fill="white" stroke="white"/>
<path d="M14.2 13.4C14.2374 13.4 14.3166 13.4238 14.3965 13.5036C14.4763 13.5834 14.5 13.6626 14.5 13.7C14.5 13.7374 14.4763 13.8166 14.3965 13.8965C14.3166 13.9763 14.2374 14 14.2 14C14.1626 14 14.0834 13.9763 14.0036 13.8965C13.9238 13.8166 13.9 13.7374 13.9 13.7C13.9 13.6626 13.9238 13.5834 14.0036 13.5036C14.0834 13.4238 14.1626 13.4 14.2 13.4Z" fill="white" stroke="white"/>
<path d="M3.90002 1.09998V3.79998" stroke="white" stroke-miterlimit="10" stroke-linecap="round" stroke-linejoin="round"/>
<path d="M14.1 1.09998V3.79998" stroke="white" stroke-miterlimit="10" stroke-linecap="round" stroke-linejoin="round"/>
<path d="M9 1.09998V3.79998" stroke="white" stroke-miterlimit="10" stroke-linecap="round" stroke-linejoin="round"/>
</svg>
