<svg width="24" height="24" viewBox="0 0 24 24" fill="none" xmlns="http://www.w3.org/2000/svg">
<path d="M18.9231 4.38452H5.07692C3.92987 4.38452 3 5.31439 3 6.46144V18.923C3 20.07 3.92987 20.9999 5.07692 20.9999H18.9231C20.0701 20.9999 21 20.07 21 18.923V6.46144C21 5.31439 20.0701 4.38452 18.9231 4.38452Z" stroke="white" stroke-linejoin="round"/>
<path d="M6.46143 3V4.38462M17.5383 3V4.38462" stroke="white" stroke-linecap="round" stroke-linejoin="round"/>
<path d="M21 7.84595H3" stroke="white" stroke-linejoin="round"/>
<path d="M16.5 18.125C16.7761 18.125 17 17.9011 17 17.625C17 17.3489 16.7761 17.125 16.5 17.125L16.5 18.125ZM15.375 17.125C15.0989 17.125 14.875 17.3489 14.875 17.625C14.875 17.9011 15.0989 18.125 15.375 18.125L15.375 17.125ZM16.5 17.125L15.375 17.125L15.375 18.125L16.5 18.125L16.5 17.125Z" fill="white"/>
<path d="M16.5 12.5C16.7761 12.5 17 12.2761 17 12C17 11.7239 16.7761 11.5 16.5 11.5L16.5 12.5ZM15.375 11.5C15.0989 11.5 14.875 11.7239 14.875 12C14.875 12.2761 15.0989 12.5 15.375 12.5L15.375 11.5ZM16.5 11.5L15.375 11.5L15.375 12.5L16.5 12.5L16.5 11.5Z" fill="white"/>
<path d="M12 12.5C12.2761 12.5 12.5 12.2761 12.5 12C12.5 11.7239 12.2761 11.5 12 11.5L12 12.5ZM7.5 11.5C7.22386 11.5 7 11.7239 7 12C7 12.2761 7.22386 12.5 7.5 12.5L7.5 11.5ZM12 11.5L7.5 11.5L7.5 12.5L12 12.5L12 11.5Z" fill="white"/>
<path d="M8.625 15.875C8.90114 15.875 9.125 15.6511 9.125 15.375C9.125 15.0989 8.90114 14.875 8.625 14.875L8.625 15.875ZM7.5 14.875C7.22386 14.875 7 15.0989 7 15.375C7 15.6511 7.22386 15.875 7.5 15.875L7.5 14.875ZM8.625 14.875L7.5 14.875L7.5 15.875L8.625 15.875L8.625 14.875Z" fill="white"/>
</svg>
