<svg width="21" height="20" viewBox="0 0 21 20" fill="none" xmlns="http://www.w3.org/2000/svg">
<path d="M20.3625 8.04152H19.5601V8.00002H10.5945V12H16.2244C15.403 14.3285 13.196 16 10.5945 16C7.29371 16 4.6175 13.3135 4.6175 10C4.6175 6.68651 7.29371 4.00001 10.5945 4.00001C12.1182 4.00001 13.5043 4.57701 14.5598 5.51951L17.3774 2.69101C15.5983 1.0265 13.2184 0 10.5945 0C5.09317 0 0.632812 4.47751 0.632812 10C0.632812 15.5225 5.09317 20 10.5945 20C16.0959 20 20.5562 15.5225 20.5562 10C20.5562 9.32952 20.4875 8.67502 20.3625 8.04152Z" fill="white"/>
</svg>
