<svg width="76" height="36" viewBox="0 0 76 36" fill="none" xmlns="http://www.w3.org/2000/svg">
<path d="M12.0586 24.7266H4.18359V10.0898H1.55859V27H12.0586V24.7266ZM14.0859 27H16.6172V14.6719H14.0859V27ZM15.3516 12.8672C16.1719 12.8672 16.8281 12.2227 16.8281 11.4258C16.8281 10.6172 16.1719 9.97266 15.3516 9.97266C14.543 9.97266 13.8867 10.6172 13.8867 11.4258C13.8867 12.2227 14.543 12.8672 15.3516 12.8672ZM29.7305 14.6719H27.082L23.9883 24.5273H23.9414L20.8477 14.6719H18.1523L22.5938 27H25.3125L29.7305 14.6719ZM35.9883 16.4883C37.7578 16.4883 38.9531 17.8125 39.0117 19.6992H32.8477C32.9766 17.8359 34.2188 16.4883 35.9883 16.4883ZM39 23.3789C38.6602 24.457 37.5938 25.1836 36.1523 25.1836C34.125 25.1836 32.8359 23.7656 32.8359 21.6211V21.4688H41.543V20.6016C41.543 16.8633 39.4102 14.4492 35.9883 14.4492C32.5078 14.4492 30.2812 17.0273 30.2812 20.8945C30.2812 24.7852 32.4727 27.2344 36.0938 27.2344C38.918 27.2344 41.0508 25.6289 41.4023 23.3789H39ZM47.6133 27V12.3516H52.7812V10.0898H39.8086V12.3516H44.9883V27H47.6133ZM62.5781 27L68.6133 10.0898H65.8125L61.1953 24.0469H61.125L56.5195 10.0898H53.6719L59.707 27H62.5781Z" fill="#00EFFF"/>
<path d="M68 5C63.6 5 60 8.02376 60 11.7195C60 15.4152 63.6 18.4389 68 18.4389C72.4 18.4389 76 15.4152 76 11.7195C76 8.02376 72.4 5 68 5Z" fill="#191C2F"/>
<g clip-path="url(#clip0_304_3561)">
<path d="M62.75 11.0001C62.75 8.66434 64.6642 6.75012 67 6.75012C69.3358 6.75012 71.25 8.66434 71.25 11.0001C71.25 13.3359 69.3358 15.2501 67 15.2501C64.6642 15.2501 62.75 13.3359 62.75 11.0001Z" stroke="#00EFFF" stroke-width="1.5" stroke-miterlimit="10" stroke-linecap="round" stroke-linejoin="round"/>
<path d="M66.8055 11.5357V10.4319L67.6994 10.977L66.8055 11.5357Z" fill="#00EFFF" stroke="#00EFFF" stroke-width="1.5"/>
</g>
<defs>
<clipPath id="clip0_304_3561">
<rect width="10" height="10" fill="white" transform="translate(62 6)"/>
</clipPath>
</defs>
</svg>
