<svg width="16" height="21" viewBox="0 0 16 21" fill="none" xmlns="http://www.w3.org/2000/svg">
<path d="M3.1663 6.24589C3.06938 7.27974 3.00137 9.10937 3.61181 9.88815C3.61181 9.88815 3.32444 7.87828 5.90055 5.35658C6.9378 4.34144 7.17755 2.96072 6.81537 1.92517C6.60962 1.33853 6.23383 0.853917 5.90735 0.515537C5.71691 0.31659 5.86314 -0.0115878 6.14031 0.000315011C7.8169 0.0751327 10.5341 0.541043 11.6887 3.43853C12.1954 4.71043 12.2328 6.02484 11.9914 7.36136C11.8384 8.21496 11.2942 10.1126 12.5355 10.3456C13.4214 10.5122 13.8499 9.80823 14.0421 9.30151C14.122 9.09066 14.3992 9.03795 14.5488 9.20629C16.0451 10.9084 16.1727 12.9132 15.8632 14.6391C15.2647 17.9753 11.886 20.4034 8.52937 20.4034C4.33618 20.4034 0.998292 18.0042 0.132787 13.6613C-0.215795 11.9082 -0.0389532 8.43941 2.66469 5.99083C2.86533 5.80719 3.19351 5.97043 3.1663 6.24589Z" fill="url(#paint0_radial_304_3419)"/>
<path d="M10.0615 12.4845C8.51579 10.4951 9.20785 8.22504 9.58704 7.32042C9.63805 7.20139 9.50202 7.08917 9.39489 7.16228C8.73004 7.61459 7.36802 8.67904 6.73377 10.1771C5.87506 12.2023 5.93628 13.1936 6.4447 14.4043C6.75077 15.1338 6.39538 15.2885 6.21684 15.3157C6.0434 15.3429 5.88356 15.2273 5.75603 15.1066C5.38915 14.7543 5.12771 14.3068 5.00105 13.8143C4.97385 13.7088 4.83612 13.6799 4.7732 13.7666C4.29709 14.4247 4.05053 15.4807 4.03863 16.2271C4.00122 18.5346 5.90737 20.405 8.21311 20.405C11.1191 20.405 13.2361 17.1913 11.5663 14.5046C11.0817 13.7224 10.626 13.2106 10.0615 12.4845Z" fill="url(#paint1_radial_304_3419)"/>
<defs>
<radialGradient id="paint0_radial_304_3419" cx="0" cy="0" r="1" gradientUnits="userSpaceOnUse" gradientTransform="translate(7.69886 20.4563) rotate(-179.751) scale(12.0027 19.6941)">
<stop offset="0.314" stop-color="#FFD400"/>
<stop offset="0.662" stop-color="#FFB300"/>
<stop offset="0.972" stop-color="#F45836"/>
</radialGradient>
<radialGradient id="paint1_radial_304_3419" cx="0" cy="0" r="1" gradientUnits="userSpaceOnUse" gradientTransform="translate(8.37294 8.51213) rotate(90.5787) scale(12.5586 9.45126)">
<stop offset="0.214" stop-color="#FFF176"/>
<stop offset="0.328" stop-color="#FFF27D"/>
<stop offset="0.487" stop-color="#FFF48F"/>
<stop offset="0.672" stop-color="#FFF7AD"/>
<stop offset="0.793" stop-color="#FFF9C4"/>
<stop offset="0.822" stop-color="#FFF8BD" stop-opacity="0.804"/>
<stop offset="0.863" stop-color="#FFF6AB" stop-opacity="0.529"/>
<stop offset="0.91" stop-color="#FFF38D" stop-opacity="0.209"/>
<stop offset="0.941" stop-color="#FFF176" stop-opacity="0"/>
</radialGradient>
</defs>
</svg>
