<svg width="24" height="24" viewBox="0 0 24 24" fill="none" xmlns="http://www.w3.org/2000/svg">
<path d="M9.23812 7.35132C7.72988 7.95162 4.3524 9.78132 2.90479 12.3013M11.5 10.0513C9.38921 11.251 4.71431 14.9113 2.90479 19.9513M12.4048 13.2013C11.3489 14.2516 8.96669 16.8913 7.88098 19.0513" stroke="white" stroke-linecap="round" stroke-linejoin="round"/>
<path d="M20.6114 5.6509C20.8583 5.26829 20.5486 4.79143 20.0968 4.82747L17.562 5.0554L15.9477 3.15019C15.677 2.81876 15.1005 2.93528 14.9901 3.37218L14.3889 5.79102L12.0139 6.70134C11.5927 6.8677 11.5268 7.43162 11.9183 7.66624L14.0942 8.92657L14.2241 11.3821C14.257 11.8182 14.7886 12.0384 15.1467 11.7503L17.0852 10.1177L19.5276 10.7203C19.9769 10.8213 20.3136 10.3997 20.1905 9.97982L19.2167 7.72469L20.6114 5.6509Z" fill="white"/>
</svg>
