<svg width="24" height="24" viewBox="0 0 24 24" fill="none" xmlns="http://www.w3.org/2000/svg">
<path d="M18 21H6C4.338 21 3 19.662 3 18V10.5C3 8.838 4.338 7.5 6 7.5H18C19.662 7.5 21 8.838 21 10.5V18C21 19.662 19.662 21 18 21" stroke="white" stroke-linecap="round" stroke-linejoin="round"/>
<path d="M12 7.5L16.5 3" stroke="white" stroke-linecap="round" stroke-linejoin="round"/>
<path d="M12 7.5L7.5 3" stroke="white" stroke-linecap="round" stroke-linejoin="round"/>
<path d="M10.385 17.201L10.3367 17.2312L10.3304 17.2375C10.3293 17.2375 10.3282 17.2375 10.327 17.2375C10.3256 17.237 10.324 17.2363 10.322 17.2355C10.3082 17.2298 10.2912 17.2198 10.2761 17.2065C10.2612 17.1935 10.2539 17.1825 10.2512 17.1771C10.2505 17.1759 10.2502 17.1751 10.25 17.1746V11.4375C10.25 11.4208 10.2516 11.4085 10.2534 11.3999L10.2772 11.4144L14.8748 14.2178C14.8821 14.2246 14.9031 14.2499 14.9031 14.3062C14.9031 14.3645 14.8807 14.3895 14.8741 14.3953L10.385 17.201ZM10.3619 11.3757C10.3641 11.3758 10.3638 11.3759 10.3613 11.3756L10.3619 11.3757Z" fill="white" stroke="white"/>
</svg>
