<svg width="25" height="24" viewBox="0 0 25 24" fill="none" xmlns="http://www.w3.org/2000/svg">
<path d="M5 12L8.42857 8.44444M5 12L8.42857 15.5556M5 12H13.5714M9.28571 20C10.2988 20 11.3019 19.7931 12.2378 19.391C13.1738 18.989 14.0242 18.3997 14.7405 17.6569C15.4569 16.914 16.0251 16.0321 16.4128 15.0615C16.8005 14.0909 17 13.0506 17 12C17 10.9494 16.8005 9.90914 16.4128 8.93853C16.0251 7.96793 15.4569 7.08601 14.7405 6.34315C14.0242 5.60028 13.1738 5.011 12.2378 4.60896C11.3019 4.20693 10.2988 4 9.28571 4" stroke="white" stroke-linecap="round" stroke-linejoin="round"/>
</svg>
