<svg width="24" height="24" viewBox="0 0 24 24" fill="none" xmlns="http://www.w3.org/2000/svg">
<path d="M11.7344 12C13.9436 12 15.7344 10.2091 15.7344 8C15.7344 5.79086 13.9436 4 11.7344 4C9.5253 4 7.73444 5.79086 7.73444 8C7.73444 10.2091 9.5253 12 11.7344 12Z" stroke="white"/>
<path d="M15.7344 20H6.34724C6.12034 20 5.89603 19.9518 5.68919 19.8586C5.48235 19.7653 5.29772 19.6291 5.14754 19.459C4.99736 19.289 4.88507 19.0889 4.81812 18.8721C4.75117 18.6553 4.7311 18.4267 4.75924 18.2016L5.07124 15.7024C5.14379 15.1218 5.42597 14.5877 5.8647 14.2005C6.30343 13.8133 6.8685 13.5998 7.45364 13.6H7.73444M17.3344 12.8V17.6M14.9344 15.2H19.7344" stroke="white" stroke-linecap="round" stroke-linejoin="round"/>
</svg>
