<svg width="16" height="14" viewBox="0 0 16 14" fill="none" xmlns="http://www.w3.org/2000/svg">
<path d="M12.8889 0.777854L7.99997 0.688965L3.11108 0.777854C3.11108 0.777854 3.11108 1.13341 3.11108 1.57785L3.19997 2.55563C3.28886 3.6223 3.55553 5.57785 4.79997 7.35563C5.4222 8.24452 6.13331 8.77785 7.0222 9.2223V11.5334H7.99997H8.97775V9.2223C9.86664 8.77785 10.5778 8.15563 11.2 7.35563C12.4444 5.57785 12.7111 3.6223 12.8 2.55563L12.8889 1.48896C12.8889 1.04452 12.8889 0.777854 12.8889 0.777854Z" stroke="white" stroke-miterlimit="10" stroke-linecap="round" stroke-linejoin="round"/>
<path d="M5.68896 13.3112V11.5334H10.3112V13.3112" stroke="white" stroke-miterlimit="10" stroke-linecap="round" stroke-linejoin="round"/>
<path d="M3.11108 13.3112H12.8889" stroke="white" stroke-miterlimit="10" stroke-linecap="round" stroke-linejoin="round"/>
<path d="M12.8 2.02231H15.1112C15.1112 2.02231 15.0223 6.73342 11.8223 6.73342" stroke="white" stroke-miterlimit="10" stroke-linecap="round" stroke-linejoin="round"/>
<path d="M3.20003 2.02231H0.888916C0.888916 2.02231 0.977805 6.73342 4.1778 6.73342" stroke="white" stroke-miterlimit="10" stroke-linecap="round" stroke-linejoin="round"/>
<path d="M8.24113 5.0682L7.99995 4.93539L7.75876 5.0682L7.5584 5.17854L7.60255 4.90528L7.64264 4.65712L7.46738 4.47692L7.25634 4.25993L7.52562 4.21833L7.78828 4.17776L7.90157 3.93734L7.99995 3.72859L8.09832 3.93734L8.21161 4.17776L8.47428 4.21833L8.74355 4.25993L8.53251 4.47692L8.35725 4.65712L8.39734 4.90528L8.4415 5.17854L8.24113 5.0682Z" stroke="white"/>
</svg>
