<svg width="24" height="24" viewBox="0 0 24 24" fill="none" xmlns="http://www.w3.org/2000/svg">
<rect width="24" height="24" rx="2" fill="white"/>
<path d="M21.9545 6.6647C21.4584 7.36344 20.8426 7.97604 20.1332 8.47638L20.1114 8.49097C20.1187 8.59285 20.1223 8.74586 20.1223 8.95001C20.1211 9.93571 19.9689 10.9158 19.6707 11.8589L19.6901 11.7877C19.3892 12.7651 18.9384 13.6938 18.3526 14.5431L18.3768 14.5052C17.7987 15.3596 17.0975 16.1308 16.2943 16.7958L16.2797 16.8074C15.4293 17.4937 14.4581 18.0278 13.412 18.3846L13.3465 18.4039C12.2764 18.7819 11.0408 19 9.75243 19H9.67119H9.67544H9.59844C7.531 19 5.60666 18.408 4 17.3901L4.0382 17.4129C4.29223 17.4409 4.58628 17.4566 4.88457 17.4566H4.92701H4.92458L5.00098 17.4572C6.70282 17.4572 8.26643 16.8885 9.49779 15.9372L9.48385 15.9477C8.72232 15.934 7.98393 15.6935 7.37043 15.2592C6.75693 14.825 6.29851 14.2183 6.05834 13.523L6.05106 13.4979C6.25841 13.5311 6.4985 13.551 6.74283 13.5527H6.74465C7.07981 13.5531 7.41355 13.5107 7.73714 13.4267L7.71047 13.4326C6.88398 13.2756 6.14012 12.8466 5.60666 12.2193L5.60181 12.2129C5.06027 11.5981 4.76389 10.818 4.76574 10.0122L4.76634 9.96318V9.96551V9.92176C5.27167 10.1976 5.83902 10.3513 6.41968 10.3697H6.42635C5.9339 10.0531 5.5278 9.62718 5.24228 9.12791L5.23258 9.10983C4.9399 8.59292 4.78746 8.01335 4.78938 7.42472C4.78938 6.76795 4.97491 6.15316 5.29866 5.62587L5.28957 5.64221C6.1914 6.70975 7.31072 7.5885 8.57867 8.22441L8.63626 8.25065C9.86217 8.87302 11.3051 9.26732 12.836 9.3379L12.859 9.33848C12.7993 9.07362 12.769 8.8034 12.7687 8.53238V8.5318C12.7696 7.82364 12.9914 7.13205 13.4055 6.5466C13.8196 5.96114 14.4069 5.50881 15.0914 5.24818C15.7758 4.98755 16.5258 4.93064 17.2442 5.08482C17.9626 5.239 18.6164 5.59716 19.1208 6.11292L19.1226 6.11467C19.9566 5.96097 20.7557 5.66633 21.4828 5.24441L21.4507 5.26191C21.1856 6.07581 20.6165 6.76634 19.8531 7.20016L19.8362 7.20891C20.5833 7.12916 21.3132 6.93891 22 6.64487L21.9533 6.66295L21.9545 6.6647Z" fill="#202020"/>
</svg>
