<svg width="116" height="24" viewBox="0 0 116 24" fill="none" xmlns="http://www.w3.org/2000/svg">
<path d="M106.63 2.11089H104.408L101.554 9.10283H98.8966L101.75 2.11089H99.5874L100.443 0.00732422H107.486L106.63 2.11089Z" fill="#00EFFF"/>
<path d="M116 0.00748601L108.852 9.10299H105.872L106.938 0.00748601H108.912C109.093 0.00748601 109.235 0.0524021 109.333 0.142234C109.43 0.232066 109.468 0.374301 109.43 0.561451L109.445 0.546479L108.897 5.2477L112.772 0.329385C112.839 0.239552 112.922 0.157206 113.027 0.0973182C113.132 0.0299441 113.237 0 113.342 0H116V0.00748601Z" fill="#00EFFF"/>
<path d="M17.8617 3.15889C17.7116 2.71722 17.4338 2.33543 17.0434 1.99856C16.6454 1.66918 16.1049 1.40717 15.4141 1.22002C14.7309 1.03287 13.8599 0.935547 12.8163 0.935547C11.8853 0.935547 11.0744 0.980463 10.3987 1.06281C9.71547 1.15264 9.12984 1.2799 8.64181 1.45957C8.15379 1.63175 7.74084 1.84135 7.41799 2.09588C7.09515 2.3504 6.81735 2.64236 6.57709 2.97174C6.26175 3.34604 5.99146 3.82515 5.76621 4.3866L0 18.61H5.24816L6.83987 14.6574H8.99469L7.45553 18.61H12.5761L17.7792 5.8314C17.9368 5.41967 18.0119 5.00045 18.0119 4.55878C18.0645 4.0647 18.0119 3.60057 17.8617 3.15889ZM12.2682 6.28056L10.8717 9.85139H8.80699L10.2786 6.28056C10.4062 5.99609 10.6089 5.75654 10.8867 5.54693C11.157 5.34481 11.4423 5.24001 11.7276 5.24001C11.9979 5.24001 12.1856 5.34481 12.2983 5.54693C12.4034 5.75654 12.3959 5.99609 12.2682 6.28056Z" fill="#00EFFF"/>
<path d="M41.2644 6.49766C41.1894 6.82704 41.2494 7.05911 41.4446 7.17888C41.6398 7.30615 41.8951 7.37352 42.1954 7.37352H46.415C46.8129 6.39285 46.9856 5.5095 46.9255 4.71598C46.873 3.92247 46.6177 3.24124 46.1672 2.68727C45.7167 2.13331 45.0785 1.69912 44.2602 1.39219C43.4343 1.08527 42.4507 0.935547 41.317 0.935547C40.3184 0.935547 39.4475 1.00292 38.7042 1.13767C37.9609 1.27242 37.3077 1.497 36.7446 1.81141C36.1815 2.12582 35.7084 2.53755 35.3105 3.05409C34.9126 3.56314 34.5672 4.19945 34.2669 4.95554C33.884 5.89129 33.7338 6.70726 33.8164 7.40346C33.899 8.10715 34.1017 8.721 34.4471 9.23754C34.785 9.76156 35.1979 10.2182 35.6784 10.615C36.1589 11.0042 36.6169 11.3636 37.0449 11.6855C37.4729 12.0148 37.8107 12.3218 38.066 12.6137C38.3138 12.9057 38.3813 13.2051 38.2537 13.5195C38.0285 14.0735 37.8032 14.4703 37.5629 14.7023C37.3302 14.9419 37.0149 15.0617 36.6169 15.0617C36.3166 15.0617 36.1439 14.9494 36.1064 14.7323C36.0688 14.5077 36.3692 13.295 36.3842 13.1602C36.4067 12.9805 36.3767 12.8383 36.2866 12.7335C36.2716 12.711 36.2565 12.6961 36.234 12.6811C36.0313 12.5014 35.7535 12.4116 35.4081 12.4116H31.2036C30.8132 13.4072 30.6405 14.2981 30.693 15.0991C30.7531 15.8926 31.0009 16.5738 31.4589 17.1278C31.9094 17.6892 32.54 18.1234 33.3659 18.4229C34.1843 18.7223 35.1679 18.872 36.3091 18.872C37.3077 18.872 38.1711 18.8047 38.9144 18.6699C39.6652 18.5352 40.3109 18.3106 40.874 17.9962C41.4371 17.6743 41.9176 17.2625 42.3081 16.746C42.706 16.237 43.0514 15.6006 43.3592 14.8371C43.7346 13.9088 43.8848 13.0928 43.8097 12.3966C43.7271 11.7079 43.5169 11.0941 43.179 10.5626C42.8336 10.0311 42.4282 9.57441 41.9402 9.18514C41.4596 8.80335 41.0092 8.44402 40.5812 8.12212C40.1532 7.80022 39.8079 7.4933 39.5601 7.20883C39.3048 6.92436 39.2448 6.61743 39.3724 6.28805C39.5901 5.73408 39.8229 5.33732 40.0556 5.09777C40.2959 4.86571 40.6112 4.74593 41.0092 4.74593C41.3245 4.74593 41.4972 4.85822 41.5272 5.09029C41.5573 5.31487 41.2795 6.43028 41.2644 6.49766Z" fill="#00EFFF"/>
<path d="M59.6367 5.07561C59.2538 4.46175 58.6907 3.99762 57.9399 3.68321C57.1891 3.36879 56.2806 3.2041 55.222 3.2041H49.3356L40.889 24.0002H45.9645L48.1944 18.6103H51.4679C52.3239 18.6103 53.0672 18.5579 53.6978 18.4531C54.336 18.3558 54.9066 18.1312 55.4247 17.7794C55.9353 17.435 56.4083 16.9409 56.8437 16.3046C57.2792 15.6608 57.7297 14.8074 58.1877 13.7369C58.3754 13.2803 58.5105 12.9434 58.5931 12.7413C58.6682 12.5392 58.7433 12.352 58.8033 12.1873C58.8634 12.0226 58.946 11.813 59.0436 11.5735C59.1337 11.3264 59.2839 10.9297 59.4941 10.3757C59.9371 9.23783 60.1623 8.22722 60.1773 7.33638C60.1923 6.44555 60.0121 5.68946 59.6367 5.07561ZM54.5312 8.53414L52.5641 13.7818C52.4065 14.1786 52.2112 14.4406 51.9785 14.5903C51.7533 14.7326 51.4604 14.7999 51.1151 14.7999C50.8147 14.7999 50.6195 14.7101 50.5219 14.5379C50.4243 14.3657 50.4994 13.9765 50.7321 13.3776L52.5866 8.5566C52.7443 8.15984 52.9095 7.89035 53.0822 7.74063C53.2549 7.59091 53.5402 7.51605 53.9381 7.51605C54.2234 7.51605 54.4261 7.61336 54.5463 7.808C54.6589 8.01012 54.6589 8.24968 54.5312 8.53414Z" fill="#00EFFF"/>
<path d="M74.0373 4.79126C73.6543 4.17741 73.0987 3.71328 72.3554 3.39887C71.6121 3.08445 70.7037 2.92725 69.645 2.92725H68.5789C66.9046 2.92725 65.4855 3.38389 64.3218 4.30467C63.158 5.23294 62.2646 6.45316 61.6489 7.98779C61.3336 8.75885 61.0633 9.44008 60.8455 10.024C60.6203 10.6079 60.4326 11.102 60.2749 11.5137C60.1022 11.9853 59.9446 12.4045 59.8019 12.7639C59.3214 13.9317 59.1112 14.9049 59.1562 15.6909C59.2088 16.4694 59.419 17.0983 59.8019 17.5699C60.1773 18.0415 60.6804 18.3784 61.3035 18.573C61.9342 18.7677 62.5799 18.8725 63.2631 18.8725H65.6357C66.4766 18.8725 67.2124 18.8201 67.8581 18.7153C68.4963 18.6104 69.0744 18.3934 69.585 18.0565C70.103 17.7121 70.576 17.218 71.0115 16.5743C71.447 15.9305 71.8899 15.0696 72.3554 13.9991C72.5431 13.5349 72.6858 13.1831 72.7909 12.9286C72.896 12.6815 72.9936 12.4345 73.0837 12.1949C73.1813 11.9629 73.2864 11.6859 73.4066 11.379C73.5267 11.072 73.6994 10.6453 73.9171 10.0914C74.3601 8.95349 74.5853 7.94288 74.5929 7.05204C74.6004 6.1612 74.4202 5.40512 74.0373 4.79126ZM68.9618 8.2498L66.7319 14.0215C66.5667 14.4108 66.379 14.6878 66.1463 14.8375C65.9135 14.9872 65.6282 15.0621 65.2828 15.0621C64.9825 15.0621 64.7798 14.9722 64.6897 14.8001C64.5921 14.6279 64.6672 14.2386 64.8999 13.6397L66.9872 8.29472C67.1598 7.88299 67.34 7.60601 67.5127 7.45628C67.6854 7.30656 67.9707 7.2317 68.3686 7.2317C68.6314 7.2317 68.8341 7.32902 68.9618 7.52366C69.0819 7.72578 69.0819 7.96533 68.9618 8.2498Z" fill="#00EFFF"/>
<path d="M91.6663 5.15006L93.7761 0.0371094H89.9545C89.5941 0.0371094 89.2412 0.156886 88.9033 0.388952C88.5655 0.628505 88.3252 0.905487 88.2051 1.2199L81.0874 18.6099H86.1854L90.0295 9.17005H94.2566L95.8934 5.15006H91.6663Z" fill="#00EFFF"/>
<path d="M86.3731 3.91527L84.6237 7.74811C84.6237 7.74811 84.2634 7.37381 81.4403 7.56096L76.928 18.6103H71.83L78.1142 3.2041H83.2197C84.5186 3.2041 85.5698 3.44365 86.3731 3.91527Z" fill="#00EFFF"/>
<path d="M31.9317 6.22253C31.8072 5.53145 31.5347 4.93803 31.0988 4.45728C30.663 3.97653 30.087 3.60845 29.3787 3.36056C28.6626 3.12019 27.8219 3 26.8568 3H25.7748C24.0313 3 22.5602 3.45822 21.3459 4.38216C20.1317 5.31361 19.2132 6.53803 18.5905 8.07793C18.2636 8.85164 17.9756 9.53521 17.7421 10.1211C17.5008 10.707 17.2984 11.2028 17.135 11.616C16.956 12.0892 16.7925 12.5099 16.6446 12.8704C16.1698 14.0423 15.9597 15.0188 16.0064 15.8075C16.0531 16.5887 16.2788 17.2197 16.668 17.693C17.0649 18.1662 17.5787 18.5042 18.2169 18.6995C18.8552 18.8948 19.5324 19 20.2329 19H22.7236C23.4942 19 24.1792 18.9549 24.7785 18.8798C25.3701 18.7972 25.9227 18.6394 26.4131 18.3915C26.9035 18.1437 27.3549 17.7981 27.7752 17.3324C28.1955 16.8742 28.6081 16.2657 29.0206 15.507C29.0206 15.492 29.0284 15.462 29.0517 15.4244C29.0829 15.3869 29.0907 15.3493 29.0907 15.3192C29.114 15.2667 29.1296 15.2141 29.1451 15.169H23.3463C23.0039 15.169 22.6692 15.169 22.35 15.169C22.0698 15.169 21.8752 15.0939 21.7507 14.9512C21.6262 14.8084 21.6573 14.493 21.8363 14.0047L22.1243 13.2911H24.4205C25.5647 13.261 26.5532 13.1333 27.386 12.9155C28.2111 12.6901 28.9116 12.3897 29.4876 12.0066C30.0636 11.631 30.5229 11.1728 30.8731 10.6319C31.2312 10.0986 31.5114 9.48263 31.7215 8.80657L31.7994 8.61878C32.0095 7.70986 32.0562 6.91361 31.9317 6.21502V6.22253ZM23.7355 9.33991L24.1247 8.38591C24.2882 7.97277 24.4594 7.69484 24.6384 7.5446C24.8174 7.39437 25.1132 7.31925 25.5258 7.31925C25.8215 7.31925 26.0317 7.4169 26.1562 7.61221C26.273 7.81502 26.273 8.0554 26.1407 8.34085L26.0706 8.54366C25.9072 9.0169 25.4479 9.33991 24.9264 9.33991H23.7355Z" fill="#00EFFF"/>
</svg>
