<svg width="24" height="24" viewBox="0 0 24 24" fill="none" xmlns="http://www.w3.org/2000/svg">
<path d="M8.82999 12.5801H5.73999V13.5301H6.77999V19.2101H7.78999V13.5201H8.82999V12.5801Z" fill="white"/>
<path d="M14.71 14.7001C14.52 14.3001 14.13 14.1901 13.78 14.2801C13.57 14.3301 13.4 14.4501 13.27 14.6101C13.22 14.6601 13.17 14.7601 13.17 14.7601V12.5701H12.28V19.2101H13.17V18.8401C13.17 18.8401 13.23 18.9101 13.26 18.9301C13.46 19.1501 13.71 19.2701 14.02 19.2801C14.4 19.2801 14.66 19.1001 14.78 18.7401C14.84 18.5701 14.85 18.4001 14.85 18.2301C14.85 17.3001 14.85 16.3701 14.85 15.4501C14.85 15.1901 14.82 14.9401 14.71 14.7001ZM13.93 18.1201C13.93 18.1701 13.92 18.2201 13.91 18.2701C13.87 18.4601 13.72 18.5501 13.51 18.5101C13.45 18.5001 13.39 18.4701 13.34 18.4401C13.29 18.4101 13.24 18.3701 13.2 18.3201L13.17 18.2801V18.2001V15.2501C13.17 15.2501 13.19 15.2001 13.23 15.1601C13.34 15.0701 13.45 15.0101 13.6 15.0201C13.72 15.0301 13.82 15.0901 13.87 15.2001C13.9 15.2901 13.93 15.3801 13.93 15.4801C13.94 16.3701 13.94 17.2401 13.93 18.1201Z" fill="white"/>
<path d="M11.5001 8.92C11.7101 8.92 11.8801 8.75 11.8801 8.54V5.88C11.8801 5.67 11.7101 5.5 11.5001 5.5C11.2901 5.5 11.1201 5.67 11.1201 5.88V8.54C11.1301 8.75 11.2901 8.92 11.5001 8.92Z" fill="white"/>
<path d="M10.5001 17.9701C10.5001 18.0001 10.5001 18.0401 10.4801 18.0601C10.3701 18.2101 10.2301 18.3301 10.0501 18.4001C9.89008 18.4601 9.77008 18.3901 9.74008 18.2301C9.73008 18.1701 9.73008 18.1001 9.73008 18.0301C9.73008 16.8301 9.73008 14.3601 9.72008 14.3301H8.83008C8.83008 14.3601 8.83008 17.8001 8.83008 18.4501C8.83008 18.6301 8.85008 18.8001 8.92008 18.9601C9.00008 19.1401 9.13008 19.2501 9.32008 19.2801C9.46008 19.3001 9.60008 19.2901 9.74008 19.2401C10.0201 19.1401 10.2301 18.9601 10.4301 18.7501C10.4501 18.7301 10.4601 18.7101 10.5001 18.6801V19.2201H11.3901V16.8601V14.3201H10.5001V17.9701Z" fill="white"/>
<path d="M21.6 0H2.4C1.08 0 0 1.08 0 2.4V21.6C0 22.92 1.08 24 2.4 24H21.6C22.92 24 24 22.92 24 21.6V2.4C24 1.08 22.92 0 21.6 0ZM13.58 4.74H14.49V8.5C14.49 8.55 14.49 8.6 14.5 8.65C14.53 8.8 14.64 8.88 14.79 8.83C14.97 8.77 15.11 8.64 15.23 8.49C15.25 8.47 15.24 8.43 15.24 8.4V4.74H16.15V9.67H15.24V9.14C15.14 9.24 15.05 9.33 14.96 9.42C14.79 9.57 14.6 9.68 14.38 9.72C14.04 9.79 13.75 9.68 13.64 9.33C13.6 9.21 13.58 9.09 13.58 8.96V4.74ZM11.5 4.62C12.22 4.62 12.81 5.21 12.81 5.93V8.49C12.81 9.21 12.22 9.8 11.5 9.8C10.78 9.8 10.19 9.21 10.19 8.49V5.93C10.19 5.21 10.78 4.62 11.5 4.62ZM7.98 3C7.98 3 8.4 4.76 8.59 5.6C8.8 4.76 9.21 3 9.21 3H10.25C10.25 3 9.45 5.65 9.09 6.83C9.08 6.87 9.08 6.92 9.08 6.96V9.67H8.12V6.96C8.12 6.92 8.11 6.87 8.1 6.83C7.74 5.65 6.95 3 6.95 3H7.98ZM19.41 18.72C19.41 19.93 18.44 20.92 17.23 20.95C13.74 21.02 10.25 21.02 6.76 20.95C5.55 20.92 4.58 19.93 4.58 18.72V13.27C4.58 12.06 5.55 11.07 6.76 11.04C10.25 10.97 13.74 10.97 17.23 11.04C18.44 11.07 19.41 12.06 19.41 13.27V18.72Z" fill="white"/>
<path d="M17.2601 17.47V18.1C17.2601 18.32 17.0801 18.5 16.8601 18.5C16.6401 18.5 16.4601 18.32 16.4601 18.1V16.87H18.1701C18.1701 16.87 18.1801 16.02 18.1701 15.63C18.1701 15.46 18.1501 15.3 18.1201 15.14C18.0301 14.72 17.8101 14.4 17.3801 14.27C17.2601 14.23 17.1201 14.21 16.9901 14.2C16.5601 14.17 16.1801 14.3 15.8801 14.63C15.6201 14.92 15.5301 15.27 15.5301 15.65C15.5301 16.38 15.5201 17.1 15.5301 17.83C15.5301 18.02 15.5501 18.2 15.6001 18.38C15.6901 18.77 15.9001 19.07 16.2701 19.24C16.5401 19.36 16.8301 19.37 17.1201 19.33C17.5901 19.26 17.9101 19.01 18.0601 18.56C18.1801 18.22 18.1601 17.48 18.1601 17.48H17.2601V17.47ZM16.4601 15.43C16.4601 15.21 16.6401 15.03 16.8601 15.03C17.0801 15.03 17.2601 15.21 17.2601 15.43V16.12H16.4601V15.43Z" fill="white"/>
</svg>
